<svg fill="none" height="50" viewBox="0 0 50 50" width="50" xmlns="http://www.w3.org/2000/svg" xmlns:xlink="http://www.w3.org/1999/xlink"><clipPath id="a"><path d="m0 0h50v50h-50z"/></clipPath><g clip-path="url(#a)" fill="#074556"><path d="m39.1 20.3502c1.1-2 3.1-4.15 6.5-6.2.95-.55 1.55-1.55 1.55-2.6 0-2.14998-2.2-3.64998-4.2-2.74998-5.8 2.54998-15.45 8.89998-15.45 22.04998 0 5.9 4.75 10.65 10.65 10.65s10.6-4.75 10.6-10.6c0-5.55-4.25-10.05-9.65-10.55z"/><path d="m12.8 20.3502c1.1-2 3.1-4.15 6.5-6.2.95-.55 1.55-1.55 1.55-2.6 0-2.14998-2.2-3.64998-4.2-2.74998-5.75 2.54998-15.4 8.89998-15.4 22.04998 0 5.9 4.75 10.65 10.6 10.65s10.65-4.75 10.65-10.65c0-5.5-4.25-10-9.7-10.5z"/></g></svg>