<?xml version="1.0" encoding="utf-8"?>
<!-- Generator: Adobe Illustrator 18.1.0, SVG Export Plug-In . SVG Version: 6.00 Build 0)  -->
<svg version="1.1" xmlns="http://www.w3.org/2000/svg" xmlns:xlink="http://www.w3.org/1999/xlink" x="0px" y="0px" width="698px"
	 height="545px" viewBox="293 -216 698 545" enable-background="new 293 -216 698 545" xml:space="preserve">
<g id="Layer_1">
	<line fill="none" stroke="#000000" stroke-width="2" stroke-miterlimit="10" x1="607" y1="56.5" x2="760" y2="174.9"/>
	<line fill="none" stroke="#000000" stroke-width="2" stroke-miterlimit="10" x1="607" y1="56.5" x2="607" y2="-119.1"/>
	<line fill="none" stroke="#000000" stroke-width="2" stroke-miterlimit="10" x1="607" y1="56.5" x2="447" y2="174.9"/>
	<title>Group 2</title>
	<desc>Created with Sketch.</desc>
	<text transform="matrix(1 0 0 1 666 -119.0867)" fill="#074556" font-family="'Helvetica-Bold'" font-size="24">Opportunity</text>
	<text transform="matrix(1 0 0 1 803.3086 -119.0867)" fill="#074556" font-family="'Helvetica-Bold'" font-size="24"> </text>
	<text transform="matrix(1 0 0 1 690.4219 -61.2664)" fill="#074556" font-family="'Helvetica'" font-size="18">- Health &amp; Wellness</text>
	<text transform="matrix(1 0 0 1 848.1592 -61.2664)" fill="#074556" font-family="'Helvetica-Bold'" font-size="24"> </text>
	<text transform="matrix(1 0 0 1 690.4219 -37.2664)" fill="#074556" font-family="'Helvetica'" font-size="18">- Play</text>
	<text transform="matrix(1 0 0 1 736.4326 -37.2664)" fill="#074556" font-family="'Helvetica-Bold'" font-size="24"> </text>
	<text transform="matrix(1 0 0 1 690.4219 -13.2664)" fill="#074556" font-family="'Helvetica'" font-size="18">- Work</text>
	<text transform="matrix(1 0 0 1 817 194.9133)" fill="#074556" font-family="'Helvetica-Bold'" font-size="24">Design</text>
	<text transform="matrix(1 0 0 1 897.0156 194.9133)" fill="#074556" font-family="'Helvetica-Bold'" font-size="24"> </text>
	<text transform="matrix(1 0 0 1 841.4219 252.7336)" fill="#074556" font-family="'Helvetica'" font-size="18">- Vibrant Space</text>
	<text transform="matrix(1 0 0 1 319 194.9133)" fill="#074556" font-family="'Helvetica-Bold'" font-size="24">Trust</text>
	<text transform="matrix(1 0 0 1 377.6875 194.9133)" fill="#074556" font-family="'Helvetica-Bold'" font-size="24"> </text>
	<text transform="matrix(1 0 0 1 343.4219 252.7336)" fill="#074556" font-family="'Helvetica'" font-size="18">- Justice</text>
	<text transform="matrix(1 0 0 1 410.4385 252.7336)" fill="#074556" font-family="'Helvetica-Bold'" font-size="24"> </text>
	<text transform="matrix(1 0 0 1 343.4219 276.7336)" fill="#074556" font-family="'Helvetica'" font-size="18">- Govt. Responsivness</text>
	<text transform="matrix(1 0 0 1 524.4941 276.7336)" fill="#074556" font-family="'Helvetica-Bold'" font-size="24"> </text>
	<text transform="matrix(1 0 0 1 343.4219 300.7336)" fill="#074556" font-family="'Helvetica'" font-size="18">- Community Voice</text>
	<circle id="Oval-2-Copy-4" fill="#074556" cx="609" cy="54.9" r="83"/>
	<text transform="matrix(1 0 0 1 543 53.9132)" fill="#FFFFFF" font-family="'Helvetica-Bold'" font-size="24">Community </text>
	<text transform="matrix(1 0 0 1 572.9824 83.9133)" fill="#FFFFFF" font-family="'Helvetica-Bold'" font-size="24">Safety</text>
	<circle fill="#58C2E1" cx="609" cy="-119.1" r="40"/>
	<circle fill="#58C2E1" cx="447" cy="174.9" r="40"/>
	<circle fill="#58C2E1" cx="760" cy="174.9" r="40"/>
</g>
<g id="Layer_3" display="none">
	
		<image display="inline" overflow="visible" enable-background="new    " width="1359" height="1278" id="Bitmap" xlink:href="57BA5A71B00D0295.png"  transform="matrix(0.3091 0 0 0.3089 396.9183 -169)">
	</image>
</g>
<g id="Layer_2">
</g>
</svg>
