<?xml version="1.0" encoding="utf-8"?>
<!-- Generator: Adobe Illustrator 18.1.0, SVG Export Plug-In . SVG Version: 6.00 Build 0)  -->
<svg version="1.1" id="Layer_1" xmlns="http://www.w3.org/2000/svg" xmlns:xlink="http://www.w3.org/1999/xlink" x="0px" y="0px"
	 width="105.4px" height="42.5px" viewBox="0 0 105.4 42.5" enable-background="new 0 0 105.4 42.5" xml:space="preserve">
<g>
	<path fill="#BEDED9" d="M22.5,29.8h0.2L32.2,0h13.1v42.5h-9.9V15.1l-0.2,0l-9.4,27.4h-6.6l-9.2-27l-0.2,0v27H0V0h12.9L22.5,29.8z"
		/>
</g>
<g>
	<path fill="#5CBCCE" d="M63.6,34.2H50.9l-2.5,8.3H38.1L52,0h5.3v0l0,0h5.3l13.9,42.5H66.1L63.6,34.2z M53.2,26.7h8.1l-4-13.2h-0.2
		L53.2,26.7z"/>
</g>
<g>
	<path fill="#334F57" d="M82.6,27.9v14.6h-9.9V0h16.2c5,0,9,1.3,12,3.9c3,2.6,4.4,5.9,4.4,10.1s-1.5,7.6-4.4,10.1
		c-3,2.6-7,3.8-12,3.8H82.6z M82.6,20.3h6.4c2.1,0,3.8-0.6,4.9-1.8c1.1-1.2,1.7-2.7,1.7-4.5c0-1.9-0.6-3.4-1.7-4.6
		c-1.1-1.2-2.8-1.8-4.9-1.8h-6.4V20.3z"/>
</g>
</svg>
