<svg width="450" height="423" viewBox="0 0 450 423" xmlns="http://www.w3.org/2000/svg" xmlns:xlink="http://www.w3.org/1999/xlink"><title>Group 5</title><defs><path id="a" d="M0 .81h14.167v14.434H0z"/><path id="c" d="M0 40h55.705V0H0z"/><path id="e" d="M.781.084h21.152V20.89H.781z"/><path id="g" d="M0 47h48V0H0z"/><path id="i" d="M.85.352h50.975V42H.85z"/><path id="k" d="M0 .7h35.614v27.793H0z"/></defs><g fill="none" fill-rule="evenodd"><ellipse fill="#F9F9F9" style="mix-blend-mode:multiply" cx="133" cy="292" rx="133" ry="131"/><ellipse fill="#F9F9F9" style="mix-blend-mode:multiply" cx="317" cy="292" rx="133" ry="131"/><ellipse fill="#F9F9F9" style="mix-blend-mode:multiply" cx="217" cy="131" rx="133" ry="131"/><g transform="translate(191 70)"><path d="M49.227 38.71H7.773c0-12.115 9.28-21.936 20.727-21.936 11.447 0 20.727 9.82 20.727 21.936" fill="#00BBDC"/><path d="M28.5 16.774c11.447 0 20.727 9.82 20.727 21.936H7.773c0-12.115 9.28-21.936 20.727-21.936" fill="#00BBDC"/><g transform="translate(0 7.742)"><mask id="b" fill="#fff"><use xlink:href="#a"/></mask><path fill="#004657" mask="url(#b)" d="M9.573 15.244L0 5.493 4.595.81l9.572 9.75z"/></g><path fill="#004657" d="M47.371 21.935l-4.621-5.022 9.628-10.461L57 11.474z"/><mask id="d" fill="#fff"><use xlink:href="#c"/></mask><path fill="#004657" mask="url(#d)" d="M25.91 12.903h5.18V0h-5.18z"/></g><g transform="translate(309 265)"><g transform="translate(25.946 26.111)"><mask id="f" fill="#fff"><use xlink:href="#e"/></mask><path d="M21.934 10.486c0 5.745-4.736 10.403-10.577 10.403-5.84 0-10.576-4.658-10.576-10.403C.781 4.742 5.516.084 11.357.084s10.577 4.658 10.577 10.402" fill="#00BBDC" mask="url(#f)"/></g><mask id="h" fill="#fff"><use xlink:href="#g"/></mask><path fill="#00BBDC" mask="url(#h)" d="M0 18.278h16.865V0H0z"/><path fill="#004657" mask="url(#h)" d="M38.919 22.194h-4.956v-11.96H22.054V5.222H38.92zM22.054 39.167H5.19V22.194h5.247v11.93h11.618z"/></g><g transform="translate(92 264)"><mask id="j" fill="#fff"><use xlink:href="#i"/></mask><path d="M48.327 22.141c2.17-2.313 3.498-5.346 3.498-8.681C51.825 6.22 45.617.352 37.958.352c-4.87 0-9.147 2.377-11.62 5.967-2.474-3.59-6.75-5.967-11.62-5.967C7.06.352.85 6.222.85 13.46c0 3.497 1.46 6.668 3.822 9.018l-.007.004L26.316 42l22.022-19.854-.01-.005z" fill="#00BBDC" mask="url(#j)"/></g><g transform="translate(86 277)"><mask id="l" fill="#fff"><use xlink:href="#k"/></mask><path fill="#004657" mask="url(#l)" d="M12.05 28.493L0 16.59l4.581-4.524 7.47 7.375L31.032.699l4.581 4.524z"/></g><text font-family="Mercury-DisplayBold, Mercury" font-size="24" font-weight="bold" fill="#074556"><tspan x="81.372" y="342">Trust</tspan></text><text font-family="Mercury-DisplayBold, Mercury" font-size="24" font-weight="bold" fill="#074556"><tspan x="293.152" y="342">Design</tspan></text><text font-family="Mercury-DisplayBold, Mercury" font-size="24" font-weight="bold" fill="#074556"><tspan x="151.456" y="135">Opportunity</tspan></text></g></svg>